<?xml version="1.0" standalone="no"?>
<!DOCTYPE svg PUBLIC "-//W3C//DTD SVG 20010904//EN"
 "http://www.w3.org/TR/2001/REC-SVG-20010904/DTD/svg10.dtd">
<svg version="1.0" xmlns="http://www.w3.org/2000/svg"
 width="800.000000pt" height="800.000000pt" viewBox="0 0 800.000000 800.000000"
 preserveAspectRatio="xMidYMid meet">
<metadata>
Created by potrace 1.11, written by Peter Selinger 2001-2013
</metadata>
<g transform="translate(0.000000,800.000000) scale(0.100000,-0.100000)"
fill="#000000" stroke="none">
<path d="M3972 6631 c-15 -15 -85 -88 -157 -162 -602 -623 -997 -1278 -1106
-1830 -18 -89 -23 -150 -23 -279 -1 -91 3 -190 7 -220 4 -30 10 -68 12 -85 19
-145 103 -378 189 -520 50 -84 140 -197 212 -267 88 -85 114 -105 199 -160
169 -108 332 -171 501 -195 l40 -5 0 118 -1 118 -100 28 c-320 92 -589 323
-710 608 -15 36 -31 73 -36 82 -4 9 -17 53 -29 97 -57 226 -66 445 -25 651 3
14 7 35 10 48 8 43 57 197 87 272 104 263 307 609 513 874 146 188 236 294
367 431 l77 80 47 -45 c83 -80 288 -321 400 -470 341 -451 551 -868 614 -1220
17 -91 18 -112 19 -225 4 -589 -306 -1033 -824 -1183 l-100 -28 0 -117 0 -117
26 0 c15 0 69 11 120 24 343 90 628 305 811 611 66 110 149 322 163 416 4 24
9 47 11 51 23 37 40 465 21 543 -2 11 -8 40 -12 65 -18 115 -85 332 -147 475
-136 316 -380 700 -650 1027 -126 151 -167 197 -360 395 l-139 143 -27 -29z"/>
<path d="M3959 5927 c-173 -202 -312 -390 -465 -627 -70 -109 -197 -359 -243
-480 -41 -108 -79 -254 -88 -339 -54 -511 182 -934 596 -1070 36 -12 69 -21
76 -21 8 0 11 36 10 120 l0 121 -81 39 c-180 88 -304 254 -351 473 -20 96 -24
268 -7 357 45 234 209 570 436 890 104 146 143 199 153 203 16 7 173 -206 293
-398 129 -204 228 -410 274 -565 79 -269 50 -543 -77 -740 -70 -108 -173 -195
-281 -236 -24 -9 -45 -19 -45 -23 -1 -3 -2 -59 -3 -123 -2 -91 1 -118 11 -118
24 0 137 42 198 73 212 109 366 304 435 548 41 146 56 349 35 494 -43 302
-245 710 -556 1125 -101 134 -270 340 -279 340 -3 -1 -21 -20 -41 -43z"/>
<path d="M1175 5257 c5 -211 11 -363 19 -442 18 -170 20 -189 32 -280 13 -104
43 -272 65 -375 45 -203 136 -507 186 -620 159 -356 300 -552 538 -747 174
-143 464 -284 635 -308 24 -4 47 -8 50 -10 13 -8 158 -18 235 -18 197 3 365
41 541 122 86 41 199 109 192 117 -3 2 -30 11 -61 19 -31 8 -95 30 -142 49
l-86 34 -75 -29 c-152 -59 -370 -85 -529 -64 -421 55 -820 371 -1025 811 -69
149 -166 422 -184 518 -2 12 -11 48 -19 81 -14 51 -44 198 -62 300 -7 43 -23
152 -30 210 -3 28 -8 66 -11 85 -13 95 -26 300 -28 431 l-2 106 95 -2 c115 -3
325 -15 350 -20 9 -2 50 -6 90 -10 40 -3 82 -8 93 -10 11 -2 39 -6 62 -9 74
-9 329 -55 411 -75 44 -11 83 -17 86 -13 3 4 12 23 19 42 8 19 26 62 42 94 35
74 35 83 1 89 -16 2 -80 16 -143 30 -107 24 -303 59 -395 71 -272 35 -407 45
-733 51 l-222 5 5 -233z"/>
<path d="M6437 5484 c-1 -1 -62 -5 -135 -9 -73 -3 -142 -8 -155 -10 -12 -2
-53 -6 -92 -10 -85 -8 -127 -13 -180 -21 -22 -3 -51 -7 -65 -9 -233 -35 -489
-91 -496 -109 -2 -6 9 -40 26 -74 16 -34 30 -64 30 -66 0 -2 7 -19 15 -38 l14
-35 133 28 c73 16 149 31 168 34 19 3 60 10 90 15 30 5 75 12 100 15 25 3 56
8 70 10 22 3 92 10 195 20 77 8 220 17 322 20 l111 3 -3 -131 c-5 -147 -10
-224 -30 -414 -6 -52 -16 -132 -20 -153 -1 -8 -6 -40 -10 -70 -4 -30 -9 -64
-11 -75 -3 -11 -11 -58 -20 -105 -8 -47 -17 -93 -20 -102 -3 -9 -6 -25 -8 -35
-2 -10 -9 -38 -16 -63 -7 -25 -14 -53 -15 -62 -21 -110 -117 -380 -185 -521
-155 -325 -371 -551 -665 -697 -232 -115 -456 -149 -694 -105 -78 14 -209 54
-253 77 -12 5 -36 0 -75 -18 -32 -14 -96 -36 -142 -50 -47 -13 -87 -26 -89
-29 -6 -5 90 -66 163 -102 99 -50 267 -105 360 -118 11 -2 42 -6 69 -10 66
-10 216 -10 298 -1 212 23 435 105 628 231 345 225 571 539 736 1020 42 120
116 393 129 475 3 19 10 54 16 78 5 23 12 59 15 80 3 20 7 46 9 57 12 76 15
94 19 125 13 95 17 132 31 270 9 96 16 254 20 467 l4 223 -195 -3 c-108 -1
-196 -3 -197 -3z"/>
<path d="M1665 4905 c4 -60 8 -116 10 -126 2 -10 6 -46 10 -81 17 -175 64
-431 111 -608 131 -493 296 -772 577 -973 119 -86 261 -149 393 -174 53 -10
259 -10 309 0 33 7 37 11 24 20 -48 36 -109 89 -166 145 -35 35 -74 65 -86 66
-55 6 -138 31 -205 62 -291 133 -485 417 -607 884 -13 50 -55 230 -59 255 -17
89 -33 186 -40 235 -2 19 -8 57 -12 84 l-7 49 49 -7 c27 -4 65 -10 84 -12 89
-13 207 -33 280 -49 14 -3 35 -7 46 -9 12 -3 38 -9 57 -14 l36 -10 7 36 c3 21
14 70 25 110 10 40 19 76 19 81 0 14 -233 63 -410 86 -25 3 -56 8 -70 10 -14
2 -50 7 -80 10 -30 3 -66 8 -80 10 -14 2 -65 6 -115 10 -49 4 -94 9 -98 12 -6
3 -6 -40 -2 -102z"/>
<path d="M6217 4994 c-1 -1 -33 -4 -72 -8 -38 -3 -86 -8 -105 -11 -19 -2 -55
-7 -80 -10 -52 -6 -116 -16 -145 -21 -11 -3 -36 -7 -55 -10 -67 -11 -273 -54
-277 -58 -2 -2 3 -32 12 -67 10 -35 18 -71 20 -79 1 -8 5 -31 9 -51 l7 -37 52
14 c52 13 81 19 146 30 18 3 43 8 55 10 66 13 136 24 176 29 25 3 62 8 84 11
l38 5 -7 -53 c-5 -44 -21 -146 -40 -258 -59 -349 -192 -723 -319 -896 -142
-195 -342 -323 -557 -358 -15 -2 -56 -34 -98 -74 -39 -39 -94 -87 -121 -108
-27 -21 -48 -39 -46 -41 18 -19 226 -28 315 -14 327 51 641 300 815 648 78
157 176 446 210 623 3 14 12 59 20 100 9 41 17 84 19 95 3 11 8 42 11 68 4 27
9 57 11 67 2 9 9 62 15 116 7 55 14 110 15 124 2 14 7 69 10 123 l7 98 -62 -3
c-34 -2 -62 -4 -63 -4z"/>
<path d="M1085 3553 c-98 -61 -342 -228 -355 -243 -3 -3 -48 -39 -100 -80
-158 -123 -256 -209 -440 -386 -69 -67 -140 -136 -158 -153 l-34 -31 59 -56
c188 -181 264 -254 308 -294 129 -116 297 -252 445 -358 47 -34 90 -66 97 -72
7 -5 14 -10 17 -10 3 0 33 -20 68 -44 246 -170 581 -333 851 -415 269 -81 595
-91 866 -25 414 100 740 353 921 714 40 78 65 147 95 260 22 81 19 104 -8 82
-20 -17 -139 -77 -198 -101 -54 -21 -57 -24 -88 -96 -39 -87 -128 -223 -192
-293 -187 -204 -461 -333 -774 -367 -64 -7 -270 -8 -293 -1 -9 2 -38 7 -64 11
-260 32 -664 212 -1018 453 -249 170 -476 352 -672 538 l-77 73 97 92 c214
204 527 446 765 593 42 26 77 51 77 55 0 4 -16 47 -36 96 -19 50 -38 98 -42
108 -6 16 -21 10 -117 -50z"/>
<path d="M6765 3517 c-22 -56 -41 -106 -43 -112 -1 -5 12 -20 30 -31 341 -220
591 -413 814 -627 l92 -88 -76 -72 c-41 -40 -83 -79 -91 -87 -13 -12 -128
-110 -238 -201 -219 -182 -583 -415 -833 -533 -196 -92 -433 -165 -590 -181
-70 -7 -249 -7 -290 -1 -14 3 -47 7 -75 11 -108 13 -244 52 -345 98 -244 113
-436 305 -550 551 -25 53 -46 86 -55 86 -16 0 -210 94 -232 112 -28 22 -29 -6
-6 -94 28 -105 36 -127 99 -255 106 -216 283 -408 491 -534 175 -106 325 -158
583 -204 19 -4 114 -8 210 -10 198 -3 299 10 488 64 179 51 324 113 612 263
67 34 313 195 443 289 230 166 428 339 743 646 l54 52 -123 119 c-181 177
-227 220 -342 318 -213 181 -501 390 -685 497 l-45 26 -40 -102z"/>
<path d="M1325 3142 c-158 -97 -396 -276 -612 -459 l-26 -21 24 -24 c44 -44
282 -232 404 -319 236 -169 421 -277 630 -369 204 -89 366 -130 530 -134 352
-10 644 108 827 336 20 24 41 54 48 67 12 23 11 24 -16 17 -16 -3 -90 -9 -164
-12 -125 -6 -138 -9 -175 -34 -73 -50 -187 -100 -260 -114 -16 -4 -41 -9 -55
-12 -14 -3 -74 -7 -135 -9 -267 -10 -568 107 -975 378 -118 79 -310 219 -310
227 0 3 44 37 98 77 134 99 154 113 257 179 50 32 92 59 94 60 2 2 -5 17 -15
33 -11 17 -38 62 -62 101 -24 38 -44 70 -45 70 -1 0 -29 -17 -62 -38z"/>
<path d="M6550 3079 c-34 -55 -60 -102 -58 -103 1 -1 50 -33 107 -70 113 -73
311 -217 329 -239 9 -10 -10 -29 -91 -89 -347 -258 -657 -425 -917 -495 -237
-63 -521 -24 -700 98 l-55 37 -140 6 c-77 3 -150 9 -162 12 -30 8 -29 1 8 -52
64 -93 189 -198 304 -256 65 -33 181 -75 229 -82 21 -4 41 -8 45 -10 15 -10
162 -21 261 -20 341 4 760 192 1263 567 101 75 279 219 326 262 11 11 6 19
-29 51 -127 115 -361 293 -543 413 -124 82 -106 85 -177 -30z"/>
</g>
</svg>
